<?xml version="1.0" encoding="UTF-8" standalone="no"?>
<!-- Created with Inkscape (http://www.inkscape.org/) -->

<svg
   width="77.296722mm"
   height="19.699768mm"
   viewBox="0 0 77.296722 19.699768"
   version="1.1"
   id="svg5"
   inkscape:version="1.2.2 (b0a8486, 2022-12-01)"
   sodipodi:docname="companyLogo.svg"
   xmlns:inkscape="http://www.inkscape.org/namespaces/inkscape"
   xmlns:sodipodi="http://sodipodi.sourceforge.net/DTD/sodipodi-0.dtd"
   xmlns="http://www.w3.org/2000/svg"
   xmlns:svg="http://www.w3.org/2000/svg">
  <sodipodi:namedview
     id="namedview7"
     pagecolor="#505050"
     bordercolor="#ffffff"
     borderopacity="1"
     inkscape:showpageshadow="0"
     inkscape:pageopacity="0"
     inkscape:pagecheckerboard="1"
     inkscape:deskcolor="#505050"
     inkscape:document-units="mm"
     showgrid="false"
     inkscape:zoom="4.8100602"
     inkscape:cx="148.23099"
     inkscape:cy="77.649756"
     inkscape:window-width="2217"
     inkscape:window-height="1399"
     inkscape:window-x="0"
     inkscape:window-y="25"
     inkscape:window-maximized="0"
     inkscape:current-layer="layer1" />
  <defs
     id="defs2" />
  <g
     inkscape:label="Layer 1"
     inkscape:groupmode="layer"
     id="layer1"
     transform="translate(-28.775136,-77.331694)">
    <path
       id="path344"
       style="fill:#baebd8;fill-opacity:0.75;stroke:#fcff00;stroke-width:0.448;stroke-linecap:round;stroke-linejoin:round"
       d="M 47.735827,92.446676 A 10.198889,9.624999 0 0 1 36.576173,96.483115 10.198889,9.624999 0 0 1 29.016866,87.74719 10.198889,9.624999 0 0 1 35.437977,78.234649 10.198889,9.624999 0 0 1 47.02235,81.00765 L 39.198132,87.181618 Z" />
    <path
       id="path2014"
       style="fill:#000000;fill-opacity:0.75;stroke:#1dff00;stroke-width:0.0848;stroke-linecap:round;stroke-linejoin:round"
       d="M 51.803719,87.942877 51.48622,87.82646 Q 51.274554,88.355625 51.041722,88.715457 50.819472,89.064706 50.544307,89.276372 50.279724,89.477455 49.951642,89.562121 49.634143,89.646788 49.231977,89.646788 48.596979,89.646788 48.141898,89.382205 47.686816,89.10704 47.401067,88.641374 47.115317,88.165126 46.977735,87.530128 46.850735,86.884547 46.850735,86.133132 46.850735,85.593384 46.967151,85.074802 47.094151,84.556221 47.358733,84.154055 47.623316,83.741307 48.036065,83.497891 48.448813,83.243892 49.030895,83.243892 49.835225,83.243892 50.438474,83.762473 51.041722,84.270472 51.285137,85.286468 H 51.64497 Q 51.64497,84.820803 51.602636,84.397471 51.560303,83.974139 51.496803,83.646057 51.443887,83.317975 51.380387,83.116892 51.316887,82.905226 51.285137,82.873476 50.893555,82.936976 50.52314,83.317975 49.803476,82.831143 48.988561,82.831143 48.31123,82.831143 47.707982,83.106309 47.115317,83.381474 46.660236,83.87889 46.215737,84.376305 45.951154,85.064219 45.686572,85.752134 45.686572,86.577631 45.686572,87.329045 45.919405,87.98521 46.152237,88.630791 46.586152,89.10704 47.020068,89.583288 47.623316,89.858454 48.237147,90.123036 48.988561,90.123036 49.49656,90.123036 49.962225,89.985453 50.438474,89.847871 50.808889,89.583288 51.189888,89.308122 51.443887,88.905957 51.708469,88.493208 51.803719,87.942877 Z M 54.608286,89.805537 Q 54.184954,89.805537 53.930955,89.562121 53.676956,89.318706 53.539373,88.969457 53.412373,88.609624 53.37004,88.196876 53.327707,87.773544 53.327707,87.424295 53.327707,87.244379 53.359457,86.969213 53.40179,86.694047 53.52879,86.440048 53.655789,86.186049 53.899205,86.006133 54.142621,85.815633 54.565953,85.815633 54.978702,85.815633 55.222118,86.059049 55.476117,86.302465 55.603116,86.662297 55.740699,87.011546 55.783033,87.434878 55.825366,87.847627 55.825366,88.196876 55.825366,88.376792 55.783033,88.651958 55.751283,88.927123 55.624283,89.181123 55.497283,89.435122 55.253868,89.625621 55.021035,89.805537 54.608286,89.805537 Z M 54.565953,90.165369 Q 55.010452,90.165369 55.412617,89.996037 55.814782,89.826704 56.121698,89.519788 56.428614,89.202289 56.60853,88.757791 56.788446,88.302709 56.788446,87.741794 56.788446,87.276129 56.629696,86.86338 56.470947,86.440048 56.174615,86.133132 55.888866,85.815633 55.4867,85.635717 55.084535,85.445218 54.608286,85.445218 54.142621,85.445218 53.729872,85.614551 53.317124,85.783883 53.010208,86.101382 52.703292,86.418881 52.523376,86.873963 52.34346,87.318462 52.34346,87.868793 52.34346,88.334459 52.50221,88.757791 52.660959,89.170539 52.946708,89.488038 53.243041,89.794954 53.655789,89.97487 54.068538,90.165369 54.565953,90.165369 Z M 62.937339,89.964287 H 65.149248 V 89.646788 Q 64.461334,89.646788 64.461334,89.117623 V 86.979796 Q 64.461334,86.249549 64.080335,85.847383 63.699336,85.445218 63.064338,85.445218 62.609256,85.445218 62.185924,85.688634 61.773176,85.93205 61.572093,86.334215 61.52976,86.154299 61.392177,85.995549 61.265177,85.8368 61.074678,85.720384 60.894762,85.593384 60.672513,85.519301 60.460847,85.445218 60.270347,85.445218 59.751765,85.445218 59.370767,85.7098 58.989768,85.974383 58.820435,86.291882 V 85.656884 Q 58.820435,85.487551 58.778102,85.445218 L 57.254107,85.815633 V 86.090799 Q 57.973771,86.090799 57.973771,86.418881 V 89.117623 Q 57.973771,89.646788 57.381106,89.646788 V 89.964287 H 59.550683 V 89.646788 Q 58.862768,89.646788 58.862768,89.07529 V 87.307879 Q 58.862768,86.016716 59.921098,86.016716 60.799512,86.016716 60.799512,87.466628 V 88.91654 Q 60.799512,89.646788 60.153931,89.646788 V 89.964287 H 62.376424 V 89.646788 Q 61.688509,89.646788 61.688509,88.958873 V 86.89513 Q 61.974258,86.016716 62.736256,86.016716 63.61467,86.016716 63.61467,87.191462 V 89.117623 Q 63.61467,89.646788 62.937339,89.646788 Z M 67.212984,88.154543 V 87.583044 Q 67.212984,87.466628 67.223567,87.212629 67.244734,86.948046 67.339984,86.683464 67.445817,86.418881 67.657483,86.217799 67.869148,86.016716 68.250147,86.016716 68.599396,86.016716 68.853395,86.196632 69.117978,86.365965 69.287311,86.641131 69.456643,86.905713 69.54131,87.244379 69.625976,87.583044 69.625976,87.900543 69.625976,88.228626 69.562476,88.546125 69.498977,88.85304 69.35081,89.10704 69.213228,89.350455 68.980395,89.498622 68.747562,89.646788 68.41948,89.646788 68.070231,89.646788 67.847982,89.530372 67.636316,89.413955 67.498733,89.212873 67.371733,89.01179 67.308234,88.747207 67.244734,88.472042 67.212984,88.154543 Z M 65.752489,91.890447 H 68.091398 V 91.615282 Q 67.244734,91.615282 67.244734,91.255449 V 90.080703 Q 67.244734,89.752621 67.212984,89.689121 L 67.244734,89.646788 Q 67.4564,89.847871 67.752732,89.964287 68.059648,90.080703 68.57823,90.080703 69.022728,90.048953 69.38256,89.837287 69.742393,89.625621 69.985808,89.297539 70.239808,88.958873 70.377391,88.546125 70.514973,88.122793 70.514973,87.667711 70.514973,87.371378 70.40914,86.99038 70.303307,86.598798 70.070475,86.260132 69.837642,85.921466 69.467227,85.688634 69.096811,85.445218 68.57823,85.445218 68.176064,85.445218 67.795065,85.646301 67.414067,85.847383 67.212984,86.291882 V 85.7733 Q 67.212984,85.561634 67.170651,85.445218 L 65.678405,85.93205 V 86.133132 Q 66.323987,86.133132 66.323987,86.619964 V 91.297783 Q 66.323987,91.615282 65.752489,91.615282 Z M 73.774627,87.667711 V 88.588458 Q 73.742877,88.768374 73.668794,88.94829 73.605294,89.128206 73.478295,89.276372 73.361878,89.424539 73.160796,89.519788 72.970296,89.604455 72.673964,89.604455 72.007216,89.604455 72.007216,88.91654 72.007216,88.588458 72.155382,88.366209 72.314132,88.143959 72.557548,88.006376 72.811547,87.85821 73.129046,87.784127 73.446545,87.699461 73.774627,87.667711 Z M 75.425622,89.519788 75.309205,89.435122 Q 75.150456,89.551538 74.981123,89.551538 74.621291,89.551538 74.621291,89.159956 V 86.86338 Q 74.621291,86.101382 74.250875,85.7733 73.88046,85.445218 73.002046,85.445218 72.673964,85.445218 72.356465,85.551051 72.049549,85.646301 71.806133,85.815633 71.573301,85.974383 71.425134,86.196632 71.276968,86.418881 71.276968,86.662297 71.276968,86.905713 71.403968,87.02213 71.530967,87.138546 71.710884,87.138546 72.197715,87.138546 72.197715,86.73638 72.197715,86.641131 72.165965,86.556464 72.134216,86.461215 72.070716,86.418881 72.070716,86.090799 72.324715,85.974383 72.578714,85.857967 72.927963,85.857967 73.732294,85.857967 73.732294,86.89513 V 87.307879 Q 71.107635,87.784127 71.107635,89.085873 71.107635,89.604455 71.372218,89.847871 71.6368,90.080703 72.197715,90.080703 73.054963,90.080703 73.81696,89.392789 73.97571,90.080703 74.578958,90.080703 75.266872,90.080703 75.425622,89.519788 Z M 78.685267,89.964287 H 80.950093 V 89.646788 Q 80.262179,89.646788 80.262179,89.234039 V 86.89513 Q 80.262179,86.503548 80.114012,86.228382 79.965846,85.953216 79.743597,85.783883 79.521348,85.603967 79.277932,85.529884 79.034516,85.445218 78.844017,85.445218 78.505351,85.445218 78.240768,85.519301 77.976186,85.593384 77.775103,85.7098 77.584604,85.826217 77.447021,85.984966 77.320021,86.133132 77.235355,86.291882 V 85.656884 Q 77.235355,85.487551 77.193022,85.445218 L 75.669027,85.815633 V 86.090799 H 75.817193 Q 76.388691,86.090799 76.388691,86.461215 V 89.159956 Q 76.388691,89.646788 75.796026,89.646788 V 89.964287 H 78.039686 V 89.646788 Q 77.277688,89.646788 77.277688,89.202289 V 87.307879 Q 77.277688,86.016716 78.336018,86.016716 79.373182,86.016716 79.373182,87.466628 V 89.202289 Q 79.373182,89.646788 78.685267,89.646788 Z M 81.57449,86.387132 83.225485,89.921954 Q 83.172568,90.154786 83.056152,90.398202 82.939736,90.652201 82.802153,90.853284 82.675153,91.06495 82.548154,91.202533 82.421154,91.340116 82.347071,91.340116 82.220072,91.340116 82.177738,91.244866 82.145988,91.1602 82.114239,91.054367 82.093072,90.948534 82.029572,90.853284 81.966072,90.768618 81.775573,90.768618 81.373408,90.768618 81.373408,91.297783 81.373408,91.816364 81.934322,91.816364 82.198905,91.816364 82.431738,91.678781 82.66457,91.541198 82.865653,91.318949 83.066735,91.107283 83.225485,90.842701 83.384234,90.578118 83.511234,90.324119 83.638234,90.07012 83.733483,89.869037 83.828733,89.657371 83.88165,89.551538 L 85.162229,86.334215 Q 85.320978,85.974383 85.765477,85.974383 V 85.656884 H 83.955733 V 85.974383 Q 84.643647,85.974383 84.643647,86.291882 84.643647,86.334215 84.622481,86.440048 84.601314,86.535298 84.558981,86.73638 L 83.712317,88.91654 82.622237,86.577631 Q 82.60107,86.492965 82.590487,86.429465 82.579904,86.355382 82.56932,86.302465 82.558737,86.249549 82.548154,86.217799 82.548154,85.974383 82.939736,85.974383 H 83.151402 V 85.656884 H 80.971242 V 85.974383 Q 81.426324,85.974383 81.57449,86.387132 Z M 89.120367,89.964287 H 91.533359 V 89.646788 Q 90.729029,89.646788 90.729029,89.202289 V 82.672393 L 89.025117,82.989892 V 83.275641 Q 89.840031,83.275641 89.840031,83.794223 V 89.159956 Q 89.840031,89.646788 89.120367,89.646788 Z M 94.390837,89.805537 Q 93.967505,89.805537 93.713506,89.562121 93.459507,89.318706 93.321924,88.969457 93.194924,88.609624 93.152591,88.196876 93.110258,87.773544 93.110258,87.424295 93.110258,87.244379 93.142008,86.969213 93.184341,86.694047 93.311341,86.440048 93.43834,86.186049 93.681756,86.006133 93.925172,85.815633 94.348504,85.815633 94.761253,85.815633 95.004668,86.059049 95.258668,86.302465 95.385667,86.662297 95.52325,87.011546 95.565583,87.434878 95.607917,87.847627 95.607917,88.196876 95.607917,88.376792 95.565583,88.651958 95.533833,88.927123 95.406834,89.181123 95.279834,89.435122 95.036418,89.625621 94.803586,89.805537 94.390837,89.805537 Z M 94.348504,90.165369 Q 94.793002,90.165369 95.195168,89.996037 95.597333,89.826704 95.904249,89.519788 96.211165,89.202289 96.391081,88.757791 96.570997,88.302709 96.570997,87.741794 96.570997,87.276129 96.412247,86.86338 96.253498,86.440048 95.957165,86.133132 95.671416,85.815633 95.269251,85.635717 94.867086,85.445218 94.390837,85.445218 93.925172,85.445218 93.512423,85.614551 93.099675,85.783883 92.792759,86.101382 92.485843,86.418881 92.305927,86.873963 92.126011,87.318462 92.126011,87.868793 92.126011,88.334459 92.28476,88.757791 92.44351,89.170539 92.729259,89.488038 93.025591,89.794954 93.43834,89.97487 93.851089,90.165369 94.348504,90.165369 Z M 99.089814,91.572948 H 98.782899 Q 98.200817,91.572948 97.862152,91.371866 97.534069,91.170783 97.534069,90.779201 97.534069,90.504035 97.724569,90.366452 97.915068,90.228869 98.264317,90.165369 H 99.142731 Q 100.40214,90.165369 100.40214,90.726284 100.40214,91.572948 99.089814,91.572948 Z M 98.793482,88.228626 Q 97.904485,88.228626 97.904485,86.89513 97.904485,85.7733 98.825232,85.7733 99.756562,85.7733 99.756562,87.233795 99.756562,88.228626 98.793482,88.228626 Z M 98.24315,91.890447 H 99.30148 Q 99.693062,91.890447 100.02114,91.795198 100.34923,91.710531 100.58206,91.541198 100.82548,91.371866 100.95248,91.12845 101.09006,90.895617 101.09006,90.599285 101.09006,90.281786 100.97364,90.048953 100.85723,89.826704 100.65614,89.678538 100.45506,89.530372 100.17989,89.466872 99.915312,89.392789 99.608396,89.392789 H 98.4019 Q 97.978568,89.392789 97.798652,89.308122 97.618736,89.212873 97.618736,88.98004 97.618736,88.588458 98.137317,88.556708 98.2749,88.588458 98.391317,88.609624 98.518316,88.630791 98.634732,88.630791 99.693062,88.630791 100.15873,88.239209 100.63498,87.847627 100.63498,87.02213 100.63498,86.842213 100.57148,86.630547 100.50798,86.418881 100.35981,86.249549 100.50798,86.069633 100.75139,86.037883 100.87839,86.196632 101.10064,86.196632 101.43931,86.196632 101.43931,85.783883 101.43931,85.402885 100.99481,85.402885 100.74081,85.402885 100.51856,85.519301 100.29631,85.625134 100.11639,85.9003 99.576646,85.445218 98.867565,85.445218 98.423066,85.445218 98.084401,85.572217 97.745735,85.699217 97.512903,85.921466 97.290653,86.133132 97.174237,86.418881 97.057821,86.704631 97.057821,87.02213 97.057821,87.964043 97.862152,88.387375 97.682235,88.387375 97.523486,88.461458 97.37532,88.535541 97.258904,88.662541 97.142487,88.789541 97.078987,88.94829 97.015488,89.10704 97.015488,89.276372 97.015488,89.921954 97.692819,90.080703 96.772072,90.366452 96.772072,90.9697 96.772072,91.435365 97.18482,91.657615 97.597569,91.890447 98.24315,91.890447 Z M 103.8417,89.805537 Q 103.41837,89.805537 103.16437,89.562121 102.91037,89.318706 102.77279,88.969457 102.64579,88.609624 102.60345,88.196876 102.56112,87.773544 102.56112,87.424295 102.56112,87.244379 102.59287,86.969213 102.6352,86.694047 102.7622,86.440048 102.8892,86.186049 103.13262,86.006133 103.37603,85.815633 103.79937,85.815633 104.21212,85.815633 104.45553,86.059049 104.70953,86.302465 104.83653,86.662297 104.97411,87.011546 105.01645,87.434878 105.05878,87.847627 105.05878,88.196876 105.05878,88.376792 105.01645,88.651958 104.9847,88.927123 104.8577,89.181123 104.7307,89.435122 104.48728,89.625621 104.25445,89.805537 103.8417,89.805537 Z M 103.79937,90.165369 Q 104.24387,90.165369 104.64603,89.996037 105.0482,89.826704 105.35511,89.519788 105.66203,89.202289 105.84194,88.757791 106.02186,88.302709 106.02186,87.741794 106.02186,87.276129 105.86311,86.86338 105.70436,86.440048 105.40803,86.133132 105.12228,85.815633 104.72011,85.635717 104.31795,85.445218 103.8417,85.445218 103.37603,85.445218 102.96329,85.614551 102.55054,85.783883 102.24362,86.101382 101.93671,86.418881 101.75679,86.873963 101.57687,87.318462 101.57687,87.868793 101.57687,88.334459 101.73562,88.757791 101.89437,89.170539 102.18012,89.488038 102.47645,89.794954 102.8892,89.97487 103.30195,90.165369 103.79937,90.165369 Z" />
  </g>
</svg>
